# xmcd
#
# Track frame offsets:
#	151
#	9680
#	20016
#	27559
#	38244
#	46195
#	57211
#	72450
#	82146
#	89917
#	100696
#	111464
#	129465
#	135920
#	146125
#	157786
#	169482
#	178253
#	191168
#	202160
#	211611
#	221253
#	231857
#	245037
#	258237
#	271521
#
# Disc length: 3786 seconds
#
# Revision: 0
# Processed by: cddbd v1.5.1PL0 Copyright (c) Steve Scherf et al.
# Submitted via: audiograbber 1.83.01
#
DISCID=840ec81a
DTITLE=Daniel Ladouceur - Mes Grands Succès
DYEAR=1900
DGENRE=Fiddle
TTITLE0=Le Reel à Daniel
TTITLE1=La Polka à Nicole-Line
TTITLE2=Maple Sugar
TTITLE3=La Valse Fortunée
TTITLE4=La Polka De Damien
TTITLE5=Le Reel D'Anick
TTITLE6=Orange Blossom Special
TTITLE7=Le Reel à Jérémy
TTITLE8=Gigue Du Lac Beaver
TTITLE9=West Falia
TTITLE10=Medley: La Guenille Chicken Reel, Rag Time Annie
TTITLE11=Amour Fannée
TTITLE12=Le Continental D'Andy
TTITLE13=Swinging Doors
TTITLE14=Diggy Liggy Loo Time
TTITLE15=Rubber Dolly
TTITLE16=Whiskey Before Breakfast
TTITLE17=Fools Such As I
TTITLE18=Le Reel De Monique Diotte
TTITLE19=La Valse De Shannon
TTITLE20=Malette Cajun
TTITLE21=My Shoes Keep Walking
TTITLE22=Le Reel De Butler
TTITLE23=Bouquet De Roses
TTITLE24=Les Roses De San Antonio
TTITLE25=Together again
EXTD=
EXTT0=
EXTT1=
EXTT2=
EXTT3=
EXTT4=
EXTT5=
EXTT6=
EXTT7=
EXTT8=
EXTT9=
EXTT10=
EXTT11=
EXTT12=
EXTT13=
EXTT14=
EXTT15=
EXTT16=
EXTT17=
EXTT18=
EXTT19=
EXTT20=
EXTT21=
EXTT22=
EXTT23=
EXTT24=
EXTT25=
PLAYORDER=
